<?xml version="1.0" standalone="no"?>
<!DOCTYPE svg PUBLIC "-//W3C//DTD SVG 20010904//EN"
 "http://www.w3.org/TR/2001/REC-SVG-20010904/DTD/svg10.dtd">
<svg version="1.0" xmlns="http://www.w3.org/2000/svg"
 width="256.000000pt" height="256.000000pt" viewBox="0 0 256.000000 256.000000"
 preserveAspectRatio="xMidYMid meet">
<metadata>
Created by potrace 1.16, written by Peter Selinger 2001-2019
</metadata>
<g transform="translate(0.000000,256.000000) scale(0.100000,-0.100000)"
fill="#000000" stroke="none">
<path d="M0 1280 l0 -1280 1280 0 1280 0 0 1280 0 1280 -1280 0 -1280 0 0
-1280z m1428 258 l203 -3 -76 -92 -75 -92 0 -272 0 -272 -73 104 -73 104 -201
5 -201 5 74 88 74 89 0 276 0 276 72 -107 72 -107 204 -2z"/>
<path d="M1100 1437 l0 -246 -60 -70 c-33 -39 -60 -72 -60 -75 0 -4 83 -6 184
-6 l183 0 54 -82 54 -82 5 250 5 251 53 60 c28 33 52 66 52 72 0 8 -54 11
-179 11 l-179 0 -56 82 -56 82 0 -247z m74 63 l26 -39 136 -3 137 -3 -27 -32
-28 -33 -109 0 -109 0 0 -110 0 -110 80 0 80 0 0 35 c0 32 -2 35 -29 35 -21 0
-35 8 -49 28 -37 54 -39 52 52 52 l86 0 0 -152 0 -152 -31 42 -31 42 -134 0
c-74 0 -134 4 -134 8 0 5 11 19 25 32 25 23 25 24 25 212 0 103 2 188 4 188 2
0 15 -18 30 -40z"/>
</g>
</svg>
